<svg width="937" height="870" viewBox="0 0 937 870" fill="none" xmlns="http://www.w3.org/2000/svg">
<path fill-rule="evenodd" clip-rule="evenodd" d="M681.956 6.69111C676.03 7.52058 669.729 8.40258 662.312 9.17956C649.322 10.5404 632.953 14.3529 619.782 17.8441C613.207 19.5869 607.449 21.2442 603.335 22.4657C601.278 23.0764 599.633 23.578 598.503 23.9266C597.938 24.101 597.501 24.237 597.207 24.3294C597.06 24.3755 596.948 24.4108 596.873 24.4344L596.789 24.461L596.771 24.4665L596.768 24.4676L596.763 24.4692L596.762 24.4696L528.314 46.7715L485.415 66.2635L430.392 94.139L386.147 120.596L332.506 159.593L286.889 200.001L286.868 200.02L239.907 243.218L203.697 283.611L198.61 289.91L168.787 326.839L168.781 326.847L136.582 367.254L109.774 409.016L81.597 460.576L60.1346 505.156L44.0275 545.582L44.0241 545.591L22.5223 598.627L19.7421 597.5L41.2406 544.472L41.2439 544.464L57.3669 503.997L57.3863 503.949L57.4089 503.902L78.9107 459.24L78.9275 459.205L78.946 459.171L107.167 407.531L107.193 407.484L107.221 407.44L134.098 365.569L134.14 365.504L134.188 365.445L166.44 324.97L166.447 324.962L196.838 287.328L201.387 281.696L201.411 281.666L201.437 281.637L237.721 241.162L237.77 241.108L237.823 241.059L284.858 197.793L284.869 197.783L284.879 197.774L330.57 157.299L330.625 157.251L330.683 157.209L384.438 118.129L384.492 118.09L384.55 118.055L428.897 91.5372L428.943 91.5103L428.989 91.4866L484.088 63.5728L484.116 63.5584L484.145 63.5453L527.149 44.0056L527.225 43.971L527.305 43.9451L595.842 21.6141L595.852 21.6108L596.253 22.8702C595.852 21.6109 595.852 21.6108 595.853 21.6107L595.854 21.6102L595.86 21.6083L595.882 21.6013L595.969 21.5737L596.137 21.5207L596.309 21.4667C596.608 21.3731 597.049 21.2357 597.618 21.0599C598.758 20.7085 600.413 20.2038 602.481 19.5898C606.617 18.362 612.404 16.6962 619.013 14.9443C632.211 11.446 648.767 7.58221 662 6.19589C669.2 5.44153 675.414 4.57295 681.31 3.74877C693.201 2.08659 703.8 0.60498 718.598 0.60498C732.826 0.60498 742.434 2.25314 754.307 4.28997C757.89 4.90464 761.679 5.5547 765.864 6.20555C785.106 9.19803 795.654 13.5226 813.298 21.6787C816.099 22.9732 818.656 24.1302 821.053 25.2145C831.84 30.0952 839.371 33.5022 851.129 41.3314C867.066 51.9438 877.979 61.687 890.418 76.5078C892.176 78.6025 893.81 80.4952 895.349 82.2784C901.877 89.842 906.704 95.4342 912.109 106.104C913.732 109.307 915.287 112.255 916.765 115.058C923.206 127.273 928.193 136.73 931.061 152.572C932.574 160.928 933.923 171.788 934.891 180.534C935.376 184.913 935.767 188.771 936.037 191.535C936.129 192.487 936.208 193.31 936.271 193.979C936.299 194.281 936.325 194.552 936.347 194.789C936.382 195.171 936.409 195.466 936.427 195.666L936.448 195.894L936.453 195.953L936.454 195.968L936.455 195.971L936.455 195.972C936.455 195.972 936.455 195.973 936.258 195.99L936.455 195.973L936.461 196.039V196.105H934.961C936.461 196.105 936.461 196.106 936.461 196.106V196.107V196.108V196.11V196.113V196.116V196.119V196.123V196.128V196.133V196.139V196.146V196.153V196.16V196.168V196.177V196.186V196.195V196.206V196.216V196.228V196.239V196.252V196.265V196.278V196.292V196.306V196.321V196.337V196.353V196.369V196.386V196.404V196.422V196.441V196.46V196.479V196.499V196.52V196.541V196.563V196.585V196.608V196.631V196.654V196.679V196.703V196.728V196.754V196.78V196.807V196.834V196.861V196.889V196.918V196.947V196.976V197.006V197.037V197.068V197.099V197.131V197.163V197.196V197.23V197.263V197.298V197.332V197.367V197.403V197.439V197.476V197.513V197.55V197.588V197.626V197.665V197.704V197.744V197.784V197.825V197.866V197.907V197.949V197.992V198.035V198.078V198.121V198.166V198.21V198.255V198.3V198.346V198.392V198.439V198.486V198.534V198.582V198.63V198.679V198.728V198.778V198.828V198.878V198.929V198.98V199.032V199.084V199.136V199.189V199.242V199.296V199.35V199.404V199.459V199.514V199.57V199.626V199.682V199.739V199.796V199.854V199.912V199.97V200.029V200.088V200.147V200.207V200.267V200.328V200.389V200.45V200.512V200.574V200.636V200.699V200.762V200.825V200.889V200.953V201.018V201.083V201.148V201.213V201.279V201.346V201.412V201.479V201.547V201.614V201.682V201.751V201.819V201.888V201.958V202.027V202.097V202.168V202.238V202.309V202.381V202.452V202.524V202.596V202.669V202.742V202.815V202.889V202.963V203.037V203.111V203.186V203.261V203.337V203.412V203.488V203.565V203.641V203.718V203.795V203.873V203.951V204.029V204.107V204.186V204.265V204.344V204.423V204.503V204.583V204.664V204.744V204.825V204.906V204.988V205.07V205.152V205.234V205.316V205.399V205.482V205.566V205.649V205.733V205.817V205.902V205.986V206.071V206.156V206.242V206.327V206.413V206.499V206.586V206.672V206.759V206.846V206.934V207.021V207.109V207.197V207.285V207.374V207.463V207.552V207.641V207.73V207.82V207.91V208V208.09V208.181V208.272V208.363V208.454V208.545V208.637V208.729V208.821V208.913V209.005V209.098V209.191V209.284V209.377V209.471V209.564V209.658V209.752V209.846V209.941V210.035V210.13V210.225V210.32V210.416V210.511V210.607V210.703V210.799V210.895V210.991V211.088V211.185V211.282V211.379V211.476V211.573V211.671V211.769V211.866V211.964V212.063V212.161V212.26V212.358V212.457V212.556V212.655V212.754V212.854V212.953V213.053V213.153V213.253V213.353V213.453V213.554V213.654V213.755V213.855V213.956V214.057V214.159V214.26V214.361V214.463V214.564V214.666V214.768V214.87V214.972V215.074V215.177V215.279V215.382V215.484V215.587V215.69V215.793V215.896V215.999V216.102V216.206V216.309V216.413V216.516V216.62V216.724V216.828V216.932V217.036V217.14V217.244V217.348V217.453V217.557V217.662V217.766V217.871V217.976V218.081V218.185V218.29V218.395V218.5V218.606V218.711V218.816V218.921V219.027V219.132V219.238V219.343V219.449V219.554V219.66V219.766V219.871V219.977V220.083V220.189V220.295V220.401V220.507V220.613V220.719V220.825V220.931V221.037V221.143V221.249V221.355V221.462V221.568V221.674V221.78V221.887V221.993V222.099V222.206V222.312V222.418V222.525V222.631V222.737V222.844V222.95V223.056V223.163V223.269V223.375V223.482V223.588V223.694V223.8V223.907V224.013V224.119V224.225V224.332V224.438V224.544V224.65V224.756V224.862V224.968V225.074V225.18V225.286V225.392V225.498V225.604V225.71V225.815V225.921V226.027V226.132V226.238V226.344V226.449V226.554V226.66V226.765V226.87V226.976V227.081V227.186V227.291V227.396V227.501V227.606V227.71V227.815V227.92V228.024V228.129V228.233V228.337V228.442V228.546V228.65V228.754V228.858V228.962V229.065V229.169V229.273V229.376V229.48V229.583V229.686V229.789V229.892V229.995V230.098V230.201V230.303V230.406V230.508V230.61V230.712V230.814V230.916V231.018V231.12V231.221V231.323V231.424V231.525V231.626V231.727V231.828V231.929V232.029V232.13V232.23V232.33V232.43V232.53V232.63V232.729V232.829V232.928V233.027V233.126V233.225V233.324V233.423V233.521V233.619V233.717V233.815V233.913V234.011V234.108V234.206V234.303V234.4V234.496V234.593V234.69V234.786V234.882V234.978V235.074V235.169V235.265V235.36V235.455V235.55V235.644V235.739V235.833V235.927V236.021V236.115V236.208V236.302V236.395V236.488V236.58C936.461 247.307 935.005 255.065 933.389 263.677L933.389 263.679L933.389 263.68L933.389 263.682L933.388 263.684C932.604 267.864 931.782 272.246 931.07 277.266C929.975 284.991 927.254 294.513 924.831 302.051C923.615 305.831 922.468 309.134 921.624 311.492C921.202 312.671 920.855 313.615 920.614 314.264C920.494 314.589 920.399 314.841 920.335 315.012L920.261 315.206L920.242 315.256L920.237 315.27L920.236 315.273L920.236 315.274C920.236 315.274 920.236 315.274 918.834 314.739L920.236 315.274L920.228 315.293L920.221 315.311L904.095 354.39L904.075 354.438L904.052 354.485L881.206 400.542L881.174 400.607L881.135 400.669L851.57 448.122L851.565 448.13L823.344 492.792L823.319 492.832L823.292 492.869L795.071 531.949L795.063 531.959L795.055 531.97L766.834 569.653L766.779 569.727L766.714 569.794L729.086 608.874L729.068 608.892L729.049 608.91L688.734 647.99L688.705 648.017L688.675 648.044L647.015 684.331L646.98 684.361L646.944 684.389L610.66 712.303L610.639 712.319L610.617 712.335L567.613 743.04L567.551 743.085L567.484 743.123L525.824 766.849L525.813 766.856L525.801 766.862L474.734 794.776L474.659 794.817L474.58 794.849L412.762 819.972L412.743 819.979L412.724 819.986L364.345 838.13L364.276 838.156L364.205 838.175L317.17 850.736L316.396 847.838L363.36 835.296L411.632 817.192L411.67 817.177L473.371 792.102L524.229 764.303L524.339 764.242L524.362 764.23L565.932 740.554L608.852 709.909L645.079 682.039L686.674 645.808L726.925 606.793L726.961 606.756L764.489 567.781L792.639 530.192L792.654 530.171L820.833 491.151L849.024 446.536L849.029 446.528L878.551 399.144L901.341 353.198L917.433 314.203L917.433 314.203L917.434 314.2L917.439 314.189L917.448 314.167L917.457 314.142L917.528 313.953C917.591 313.787 917.683 313.541 917.802 313.221C918.039 312.581 918.382 311.648 918.799 310.481C919.635 308.146 920.771 304.875 921.975 301.132C924.389 293.624 927.043 284.304 928.1 276.845C928.852 271.543 929.698 267.044 930.492 262.821C932.08 254.374 933.461 247.033 933.461 236.58V236.488V236.395V236.302V236.208V236.115V236.021V235.927V235.833V235.739V235.644V235.55V235.455V235.36V235.265V235.169V235.074V234.978V234.882V234.786V234.69V234.593V234.496V234.4V234.303V234.206V234.108V234.011V233.913V233.815V233.717V233.619V233.521V233.423V233.324V233.225V233.126V233.027V232.928V232.829V232.729V232.63V232.53V232.43V232.33V232.23V232.13V232.029V231.929V231.828V231.727V231.626V231.525V231.424V231.323V231.221V231.12V231.018V230.916V230.814V230.712V230.61V230.508V230.406V230.303V230.201V230.098V229.995V229.892V229.789V229.686V229.583V229.48V229.376V229.273V229.169V229.065V228.962V228.858V228.754V228.65V228.546V228.442V228.337V228.233V228.129V228.024V227.92V227.815V227.71V227.606V227.501V227.396V227.291V227.186V227.081V226.976V226.87V226.765V226.66V226.554V226.449V226.344V226.238V226.132V226.027V225.921V225.815V225.71V225.604V225.498V225.392V225.286V225.18V225.074V224.968V224.862V224.756V224.65V224.544V224.438V224.332V224.225V224.119V224.013V223.907V223.8V223.694V223.588V223.482V223.375V223.269V223.163V223.056V222.95V222.844V222.737V222.631V222.525V222.418V222.312V222.206V222.099V221.993V221.887V221.78V221.674V221.568V221.462V221.355V221.249V221.143V221.037V220.931V220.825V220.719V220.613V220.507V220.401V220.295V220.189V220.083V219.977V219.871V219.766V219.66V219.554V219.449V219.343V219.238V219.132V219.027V218.921V218.816V218.711V218.606V218.5V218.395V218.29V218.185V218.081V217.976V217.871V217.766V217.662V217.557V217.453V217.348V217.244V217.14V217.036V216.932V216.828V216.724V216.62V216.516V216.413V216.309V216.206V216.102V215.999V215.896V215.793V215.69V215.587V215.484V215.382V215.279V215.177V215.074V214.972V214.87V214.768V214.666V214.564V214.463V214.361V214.26V214.159V214.057V213.956V213.855V213.755V213.654V213.554V213.453V213.353V213.253V213.153V213.053V212.953V212.854V212.754V212.655V212.556V212.457V212.358V212.26V212.161V212.063V211.964V211.866V211.769V211.671V211.573V211.476V211.379V211.282V211.185V211.088V210.991V210.895V210.799V210.703V210.607V210.511V210.416V210.32V210.225V210.13V210.035V209.941V209.846V209.752V209.658V209.564V209.471V209.377V209.284V209.191V209.098V209.005V208.913V208.821V208.729V208.637V208.545V208.454V208.363V208.272V208.181V208.09V208V207.91V207.82V207.73V207.641V207.552V207.463V207.374V207.285V207.197V207.109V207.021V206.934V206.846V206.759V206.672V206.586V206.499V206.413V206.327V206.242V206.156V206.071V205.986V205.902V205.817V205.733V205.649V205.566V205.482V205.399V205.316V205.234V205.152V205.07V204.988V204.906V204.825V204.744V204.664V204.583V204.503V204.423V204.344V204.265V204.186V204.107V204.029V203.951V203.873V203.795V203.718V203.641V203.565V203.488V203.412V203.337V203.261V203.186V203.111V203.037V202.963V202.889V202.815V202.742V202.669V202.596V202.524V202.452V202.381V202.309V202.238V202.168V202.097V202.027V201.958V201.888V201.819V201.751V201.682V201.614V201.547V201.479V201.412V201.346V201.279V201.213V201.148V201.083V201.018V200.953V200.889V200.825V200.762V200.699V200.636V200.574V200.512V200.45V200.389V200.328V200.267V200.207V200.147V200.088V200.029V199.97V199.912V199.854V199.796V199.739V199.682V199.626V199.57V199.514V199.459V199.404V199.35V199.296V199.242V199.189V199.136V199.084V199.032V198.98V198.929V198.878V198.828V198.778V198.728V198.679V198.63V198.582V198.534V198.486V198.439V198.392V198.346V198.3V198.255V198.21V198.166V198.121V198.078V198.035V197.992V197.949V197.907V197.866V197.825V197.784V197.744V197.704V197.665V197.626V197.588V197.55V197.513V197.476V197.439V197.403V197.367V197.332V197.298V197.263V197.23V197.196V197.163V197.131V197.099V197.068V197.037V197.006V196.976V196.947V196.918V196.889V196.861V196.834V196.807V196.78V196.754V196.728V196.703V196.679V196.654V196.631V196.608V196.585V196.563V196.541V196.52V196.499V196.479V196.46V196.441V196.422V196.404V196.386V196.369V196.353V196.337V196.321V196.306V196.292V196.278V196.265V196.252V196.239V196.228V196.216V196.206V196.195V196.186V196.177V196.168L933.46 196.163L933.44 195.938L933.418 195.698L933.395 195.455L933.359 195.066C933.289 194.307 933.185 193.203 933.051 191.826C932.782 189.072 932.393 185.227 931.91 180.865C930.942 172.13 929.603 161.356 928.109 153.106C925.329 137.751 920.575 128.729 914.167 116.57C912.677 113.742 911.098 110.745 909.433 107.459C904.204 97.1383 899.628 91.8339 893.141 84.314L893.14 84.3131L893.13 84.302L893.115 84.285L893.101 84.2687C891.561 82.4824 889.911 80.5705 888.12 78.4364C875.865 63.8347 865.166 54.2827 849.466 43.8284C837.924 36.1428 830.618 32.8365 819.864 27.9703L819.859 27.968C817.454 26.8795 814.876 25.713 812.04 24.4019C794.503 16.2953 784.245 12.1003 765.403 9.16991C761.126 8.50466 757.284 7.84601 753.676 7.22731C741.866 5.20215 732.551 3.60498 718.598 3.60498C704.003 3.60498 693.719 5.04453 681.956 6.69111ZM20.6106 618.57L21.061 618.592L21.1807 625.881C21.2145 627.941 20.7907 629.539 19.9092 630.675C19.0278 631.812 17.6972 632.397 15.9175 632.43C14.7577 632.451 13.5405 632.024 12.266 631.147C10.9917 630.291 10.1683 629.476 9.79551 628.703L0.858162 634.42L0.792306 635.891C0.772309 635.891 0.622171 635.884 0.341891 635.869L0.258224 632.6L9.40308 626.73L9.33758 622.74L0.699073 622.901L0.613562 625.003C0.593565 625.003 0.443427 624.996 0.163147 624.981L0.0341797 618.952L0.454598 618.974L0.690167 620.53C0.712462 620.67 0.804252 620.778 0.965537 620.855L20.1622 620.499C20.3412 620.436 20.4394 620.324 20.4568 620.163L20.6106 618.57ZM20.7283 625.739L20.6756 622.53L9.78751 622.732L9.87171 627.861C11.0686 628.879 12.1199 629.56 13.0256 629.903C13.9514 630.246 14.8442 630.409 15.704 630.393C17.3838 630.362 18.6471 629.949 19.4942 629.153C20.3412 628.357 20.7526 627.219 20.7283 625.739ZM0.345018 643.371C0.310877 641.291 0.883035 639.59 2.06149 638.268C3.24027 636.966 5.05945 636.292 7.51903 636.247C9.9986 636.201 11.9494 636.844 13.3715 638.178C14.8139 639.532 15.5522 641.248 15.5863 643.328C15.6205 645.408 15.0483 647.109 13.8699 648.431C12.6914 649.753 10.8624 650.437 8.38282 650.483C5.92324 650.529 3.97225 649.875 2.52984 648.521C1.10776 647.187 0.379486 645.471 0.345018 643.371ZM15.0459 643.308C15.0213 641.808 14.3509 640.57 13.0347 639.595C11.7185 638.619 9.94063 638.152 7.70101 638.193C5.48139 638.235 3.7794 638.736 2.59504 639.698C1.431 640.68 0.861289 641.921 0.885909 643.421C0.91053 644.921 1.58093 646.158 2.89712 647.134C4.21331 648.11 5.98122 648.577 8.20084 648.536C10.4205 648.495 12.1223 647.983 13.3063 647.001C14.4907 646.039 15.0706 644.808 15.0459 643.308ZM1.05609 657.443C1.05806 657.563 1.07002 657.683 1.09199 657.802C1.12906 658.842 1.46328 659.706 2.09466 660.394C2.74604 661.082 3.68163 661.415 4.90142 661.392C6.10121 661.37 6.95563 660.414 7.46468 658.524C7.67184 657.74 7.899 656.956 8.14615 656.171C8.3933 655.386 8.79224 654.709 9.34295 654.139C9.89399 653.588 10.6194 653.305 11.5193 653.288C12.7991 653.264 13.8269 653.735 14.6029 654.701C15.3988 655.666 15.8091 656.899 15.8337 658.399C15.8521 659.519 15.6707 660.652 15.2895 661.8L15.0884 662.343L11.639 662.407L11.4197 661.841L13.9672 661.674C14.868 660.497 15.312 659.519 15.2992 658.739C15.2812 657.639 14.937 656.775 14.2666 656.148C13.6162 655.52 12.7511 655.216 11.6713 655.236C11.0514 655.247 10.5559 655.526 10.1848 656.073C9.81407 656.64 9.52512 657.316 9.31796 658.1C9.1108 658.884 8.87365 659.668 8.6065 660.453C8.35934 661.238 7.93025 661.906 7.31922 662.458C6.72852 663.029 5.94325 663.323 4.96342 663.341C3.64365 663.366 2.58562 662.885 1.78934 661.9C1.01339 660.934 0.610473 659.542 0.5806 657.722C0.550727 655.902 0.955869 654.384 1.79602 653.168L5.24543 653.104L5.46426 653.641L2.91716 653.838C2.40184 654.127 1.96013 654.636 1.59201 655.363C1.22422 656.11 1.04558 656.803 1.05609 657.443ZM7.76676 667.787C3.4475 667.867 1.31545 669.587 1.3706 672.947C1.38504 673.827 1.49046 674.765 1.68684 675.761C1.90322 676.757 2.09369 677.394 2.25826 677.671L1.96176 677.887C1.65426 677.432 1.39183 676.677 1.17447 675.621C0.957431 674.585 0.841691 673.627 0.827247 672.747C0.813131 671.887 0.890313 671.105 1.05879 670.402C1.2276 669.719 1.53606 669.013 1.98416 668.284C2.43226 667.556 3.14278 666.973 4.11572 666.535C5.08866 666.096 6.285 665.864 7.70476 665.838C10.3443 665.789 12.3751 666.431 13.7972 667.765C15.2803 669.158 16.0372 670.794 16.0681 672.674C16.0989 674.554 15.6025 675.993 14.5788 676.992C13.5553 678.011 12.1038 678.538 10.2241 678.573C9.8242 678.581 9.39378 678.559 8.93287 678.507L8.75708 667.799C8.53679 667.783 8.20668 667.779 7.76676 667.787ZM10.405 676.8C11.9048 676.772 13.1192 676.419 14.0482 675.742C14.9972 675.064 15.4623 674.155 15.4436 673.016C15.4193 671.536 14.7489 670.298 13.4324 669.302C12.3991 668.501 11.031 668.017 9.32797 667.848L9.47471 676.787C9.695 676.803 10.0051 676.807 10.405 676.8ZM31.1956 687.631L30.9353 688.837L24.9382 684.187L25.2483 683.581L31.1956 687.631ZM1.85912 699.05C1.86174 699.21 1.8777 699.37 1.90699 699.529C1.95641 700.915 2.40204 702.067 3.24389 702.985C4.11239 703.902 5.35984 704.346 6.98623 704.316C8.58595 704.286 9.72518 703.011 10.4039 700.492C10.6801 699.446 10.983 698.401 11.3125 697.354C11.6421 696.308 12.174 695.405 12.9083 694.644C13.643 693.91 14.6102 693.532 15.81 693.51C17.5164 693.479 18.8869 694.107 19.9215 695.394C20.9828 696.681 21.5298 698.325 21.5626 700.325C21.5872 701.818 21.3453 703.329 20.837 704.859L20.5688 705.584L15.9696 705.669L15.6772 704.915L19.074 704.692C20.2751 703.122 20.8671 701.818 20.85 700.778C20.8259 699.311 20.367 698.16 19.4731 697.323C18.6059 696.485 17.4524 696.08 16.0127 696.107C15.1862 696.122 14.5255 696.495 14.0308 697.224C13.5364 697.98 13.1512 698.88 12.8749 699.926C12.5987 700.971 12.2825 702.017 11.9263 703.064C11.5968 704.11 11.0247 705.001 10.21 705.736C9.42236 706.498 8.37534 706.89 7.06889 706.915C5.3092 706.947 3.8985 706.307 2.83679 704.993C1.80218 703.705 1.26497 701.848 1.22514 699.422C1.1853 696.995 1.72549 694.972 2.8457 693.351L7.44491 693.265L7.73668 693.98L4.34055 694.243C3.65346 694.629 3.06451 695.307 2.57368 696.276C2.0833 697.272 1.84511 698.197 1.85912 699.05ZM13.4261 726.189L13.6244 738.267L12.9045 738.281L12.7062 726.202L13.4261 726.189ZM15.5777 744.969C17.6538 744.825 19.1535 745.431 20.0768 746.787C21.0112 748.159 21.1296 749.822 20.4319 751.776C19.7454 753.747 18.1529 755.7 15.6545 757.635C13.172 759.557 10.8926 760.59 8.81645 760.734C6.75611 760.865 5.25869 760.245 4.32419 758.873C3.3897 757.501 3.25551 755.85 3.92164 753.92C4.58777 751.99 6.17794 750.052 8.69214 748.104C11.2063 746.157 13.5015 745.112 15.5777 744.969ZM2.80948 752.925C2.30983 755.206 2.69614 757.28 3.96841 759.148C5.24067 761.016 7.04556 762.017 9.38307 762.151C11.7364 762.273 14.2176 761.323 16.8267 759.302C19.4358 757.282 21.0003 755.111 21.5203 752.789C22.0674 750.472 21.7048 748.379 20.4325 746.511C19.1715 744.66 17.3644 743.673 15.011 743.552C12.6735 743.418 10.1844 744.373 7.54372 746.418C4.90302 748.464 3.32494 750.633 2.80948 752.925ZM24.2498 771.371C24.466 770.093 24.2557 768.791 23.619 767.466C23.3603 766.909 22.6838 765.792 21.5896 764.114C22.8128 763.924 24.0573 763.907 25.323 764.063C27.5723 764.316 29.6937 764.895 31.6871 765.801L32.0795 765.951L32.2194 765.199C31.5407 764.841 30.6398 764.44 29.5167 763.997C28.6552 763.654 27.8252 763.375 27.0267 763.161C26.2283 762.946 25.2718 762.765 24.1573 762.618C23.0428 762.471 21.98 762.436 20.969 762.512C19.9738 762.576 18.9186 762.799 17.8034 763.183C16.6882 763.567 15.672 764.114 14.7548 764.825C13.1894 766.037 12.347 767.371 12.2276 768.827C12.1194 770.299 12.5777 771.788 13.6022 773.292C14.6381 774.813 15.9309 775.718 17.4806 776.007C19.0417 776.313 20.5101 775.934 21.8858 774.868C23.2614 773.803 24.0495 772.637 24.2498 771.371ZM15.9507 766.474C17.4529 765.311 19.1689 764.55 21.0987 764.191C22.0353 765.638 22.6893 766.722 23.0606 767.444C23.4316 768.344 23.4348 769.288 23.0701 770.277C22.7167 771.283 21.9233 772.264 20.6899 773.219C19.4723 774.162 18.2137 774.619 16.914 774.59C15.6414 774.566 14.673 774.066 14.0087 773.091C13.3557 772.132 13.1338 771.079 13.343 769.933C13.5793 768.79 14.4485 767.637 15.9507 766.474ZM45.2685 799.003L38.4681 789.019L37.8989 789.459L44.6993 799.443L45.2685 799.003ZM55.5405 797.629L55.7439 797.329L61.2833 800.202C63.467 801.335 64.9076 802.554 65.6049 803.861C66.3199 805.177 66.1897 806.898 65.2141 809.025C64.2468 811.134 62.9793 812.412 61.4116 812.859C59.8699 813.297 58.0427 812.969 55.9299 811.873L53.8793 810.81L50.7148 817.708L52.5024 818.77C52.4961 818.784 52.4539 818.862 52.3759 819.005L52.2881 819.166L46.9493 816.431C47.0243 816.267 47.0916 816.144 47.151 816.063L48.6234 816.59C48.7561 816.636 48.8912 816.605 49.029 816.496L57.0339 799.045C57.038 798.844 56.982 798.703 56.8661 798.62L55.5296 797.725C55.5242 797.709 55.5231 797.692 55.5263 797.673C55.5287 797.659 55.5334 797.644 55.5405 797.629ZM60.9625 800.542L59.045 799.548L54.0669 810.4L55.9844 811.395C57.5823 812.224 58.972 812.404 60.1534 811.937C61.3526 811.479 62.4192 810.231 63.3531 808.195C64.2953 806.141 64.5343 804.566 64.0699 803.47C63.614 802.356 62.5781 801.38 60.9625 800.542ZM65.5188 826.162C63.6723 825.205 62.4222 823.881 61.7685 822.192C61.1325 820.512 61.3273 818.554 62.353 816.318C63.387 814.064 64.7994 812.613 66.5904 811.967C68.4075 811.312 70.2393 811.463 72.0858 812.42C73.9322 813.378 75.1823 814.701 75.836 816.391C76.4898 818.08 76.2996 820.052 75.2657 822.306C74.24 824.542 72.8187 825.987 71.0016 826.643C69.2106 827.289 67.383 827.129 65.5188 826.162ZM71.834 812.897C70.5024 812.207 69.1217 812.222 67.692 812.943C66.2623 813.665 65.0805 815.043 64.1466 817.079C63.221 819.097 62.9253 820.868 63.2594 822.391C63.6197 823.906 64.4656 825.008 65.7972 825.699C67.1287 826.39 68.5094 826.374 69.9391 825.653C71.3689 824.932 72.5465 823.562 73.4721 821.544C74.3977 819.526 74.6845 817.751 74.3326 816.219C73.9984 814.695 73.1656 813.588 71.834 812.897ZM82.7186 819.454L81.718 821.635C84.0878 820.254 85.9558 819.895 87.3218 820.558L87.6414 820.724L89.0452 821.688L87.6023 822.965C87.4234 822.445 87.0676 822.047 86.535 821.77C85.2306 821.116 83.5124 821.317 81.3803 822.371L77.2277 831.424L79.4288 832.735C79.4205 832.753 79.3491 832.885 79.2146 833.13L73.6094 830.257C73.6845 830.093 73.7517 829.971 73.8112 829.889L75.2836 830.416C75.434 830.472 75.5633 830.381 75.6717 830.145L81.1001 818.311C81.123 818.165 81.0989 818.074 81.0279 818.037L79.455 817.154L79.6567 816.786C80.6905 817.119 81.456 817.415 81.9531 817.673C82.4502 817.931 82.7334 818.224 82.8025 818.552C82.8716 818.88 82.8437 819.181 82.7186 819.454ZM90.3773 838.278L91.4409 838.762L91.3957 839.076C91.378 839.067 91.2412 839.029 90.9854 838.964C90.3943 838.815 89.7704 838.571 89.1135 838.23C88.5265 837.88 88.022 837.495 87.5999 837.074C87.1862 836.634 86.8913 836.031 86.7154 835.265C86.5478 834.48 86.6641 833.652 87.0643 832.779L91.4545 823.208L90.0963 822.503L90.4094 822.396L91.6938 822.758L93.1076 820.251L94.6615 820.888L93.4107 823.615L96.6332 825.286L96.408 825.777L93.1856 824.106L89.008 833.213C88.3743 834.595 88.2289 835.678 88.5719 836.464C88.9233 837.231 89.525 837.836 90.3773 838.278ZM92.0394 839.815L92.2411 839.447L93.7135 839.974C93.8816 840.039 94.0199 839.953 94.1283 839.717L99.7318 827.5L98.3736 826.796L98.6867 826.688L99.9444 827.037L101.47 823.71C102.046 822.456 102.858 821.763 103.907 821.632C104.964 821.483 106.026 821.685 107.091 822.237C107.801 822.605 108.359 823.018 108.764 823.476L108.597 823.626C108.196 823.35 107.836 823.13 107.516 822.964C107.214 822.807 106.892 822.696 106.548 822.63C106.222 822.574 105.845 822.581 105.417 822.652C104.465 822.811 103.631 823.672 102.914 825.235L101.688 827.907L104.91 829.579L104.685 830.069L101.463 828.398L95.6842 840.996L97.8854 842.307C97.8771 842.325 97.8056 842.456 97.6712 842.702L92.0394 839.815ZM106.845 847.594C104.998 846.637 103.748 845.313 103.094 843.624C102.458 841.944 102.653 839.986 103.679 837.75C104.713 835.496 106.125 834.045 107.916 833.399C109.733 832.744 111.565 832.895 113.412 833.852C115.258 834.81 116.508 836.133 117.162 837.823C117.816 839.512 117.625 841.484 116.592 843.738C115.566 845.974 114.145 847.419 112.327 848.075C110.536 848.721 108.709 848.561 106.845 847.594ZM113.16 834.329C111.828 833.639 110.448 833.654 109.018 834.375C107.588 835.097 106.406 836.475 105.472 838.511C104.547 840.529 104.251 842.3 104.585 843.823C104.946 845.338 105.791 846.44 107.123 847.131C108.455 847.822 109.835 847.806 111.265 847.085C112.695 846.364 113.872 844.994 114.798 842.976C115.724 840.958 116.01 839.183 115.658 837.651C115.324 836.127 114.491 835.02 113.16 834.329ZM115.202 851.827L115.403 851.459L116.876 851.986C117.008 852.033 117.13 851.983 117.241 851.838L125.796 833.186C125.888 832.987 125.88 832.859 125.774 832.804L124.174 831.907L124.376 831.539C125.569 831.955 126.37 832.269 126.779 832.481C127.205 832.702 127.452 832.977 127.522 833.305C127.609 833.643 127.589 833.948 127.464 834.221L118.846 853.008L120.781 854.181C120.773 854.199 120.702 854.33 120.567 854.576L115.202 851.827ZM131.411 844.706L125.92 856.677L127.855 857.849C127.852 857.855 127.843 857.871 127.829 857.899C127.796 857.96 127.733 858.075 127.64 858.244L122.302 855.509C122.377 855.345 122.444 855.223 122.503 855.141L123.976 855.668C124.082 855.724 124.191 855.679 124.301 855.534L129.792 843.563C129.815 843.417 129.791 843.326 129.72 843.289L128.147 842.406L128.349 842.038C129.383 842.371 130.148 842.667 130.645 842.925C131.142 843.183 131.426 843.476 131.495 843.804C131.564 844.133 131.536 844.433 131.411 844.706ZM132.694 839.464C132.339 839.28 132.114 839.028 132.019 838.709C131.932 838.371 131.972 838.021 132.139 837.657C132.314 837.276 132.549 837.026 132.844 836.909C133.166 836.784 133.504 836.813 133.859 836.997C134.214 837.181 134.444 837.446 134.549 837.793C134.679 838.131 134.653 838.5 134.47 838.9C134.294 839.282 134.041 839.522 133.711 839.62C133.388 839.701 133.049 839.649 132.694 839.464ZM136.363 862.903C134.517 861.945 133.267 860.622 132.613 858.932C131.977 857.253 132.172 855.294 133.197 853.058C134.231 850.804 135.644 849.354 137.435 848.708C139.252 848.052 141.084 848.203 142.93 849.161C144.777 850.119 146.027 851.442 146.68 853.131C147.334 854.82 147.144 856.792 146.11 859.046C145.084 861.282 143.663 862.728 141.846 863.383C140.055 864.03 138.227 863.87 136.363 862.903ZM142.678 849.638C141.347 848.947 139.966 848.963 138.536 849.684C137.107 850.405 135.925 851.784 134.991 853.82C134.065 855.838 133.77 857.608 134.104 859.132C134.464 860.646 135.31 861.749 136.641 862.44C137.973 863.13 139.354 863.115 140.783 862.394C142.213 861.672 143.391 860.303 144.316 858.285C145.242 856.267 145.529 854.492 145.177 852.959C144.843 851.436 144.01 850.329 142.678 849.638ZM184.463 868.463C181.109 868.65 179.325 866.586 179.112 862.271C179.09 861.832 179.084 861.502 179.093 861.281L189.787 860.685C189.824 860.222 189.833 859.791 189.813 859.392C189.721 857.514 189.149 856.083 188.1 855.1C187.07 854.116 185.617 853.676 183.74 853.781C181.863 853.886 180.251 854.707 178.905 856.244C177.616 857.718 177.037 859.773 177.167 862.41C177.237 863.828 177.505 865.015 177.973 865.971C178.44 866.926 179.045 867.613 179.787 868.033C180.528 868.452 181.243 868.733 181.931 868.875C182.638 869.016 183.422 869.062 184.28 869.014C185.159 868.965 186.112 868.812 187.141 868.554C188.19 868.296 188.936 868.004 189.381 867.678L189.156 867.39C188.884 867.566 188.254 867.781 187.266 868.037C186.276 868.272 185.342 868.414 184.463 868.463ZM186.867 855.68C187.572 856.582 187.962 857.782 188.036 859.28C188.055 859.68 188.061 859.99 188.051 860.211L179.125 860.708C179.241 858.999 179.683 857.613 180.452 856.548C181.406 855.193 182.622 854.474 184.1 854.392C185.238 854.328 186.161 854.758 186.867 855.68ZM192.682 868.035L192.673 868.456L198.692 868.091C198.695 867.969 198.697 867.871 198.698 867.798C198.7 867.704 198.7 867.651 198.7 867.64L196.446 867.615L196.082 860.244L203.155 867.842L206.929 867.632C206.935 867.351 206.938 867.201 206.937 867.181L204.863 867.146L197.239 859.338L202.001 853.575L205.406 853.175C205.372 852.896 205.354 852.747 205.353 852.727L199.062 853.047C199.071 853.227 199.087 853.366 199.112 853.465L200.68 853.588C200.841 853.599 200.928 853.735 200.941 853.994L196.082 860.244L195.428 846.97C195.413 846.671 195.29 846.397 195.057 846.15C194.845 845.901 194.499 845.79 194.02 845.817C193.56 845.842 192.706 845.98 191.457 846.23L191.448 846.651L193.278 846.609C193.398 846.603 193.463 846.709 193.474 846.929L194.484 867.424C194.453 867.606 194.368 867.711 194.229 867.739L192.682 868.035ZM213.189 866.892C213.07 866.919 212.951 866.936 212.831 866.942C212.192 866.978 211.494 866.827 210.736 866.488C209.999 866.149 209.478 865.727 209.172 865.223L208.897 862.685L208.368 862.925L208.538 866.37C209.779 867.163 211.307 867.508 213.125 867.407C214.942 867.306 216.321 866.848 217.262 866.035C218.222 865.2 218.67 864.123 218.605 862.805C218.556 861.826 218.238 861.053 217.649 860.484C217.079 859.895 216.399 859.493 215.607 859.276C214.815 859.04 214.024 858.834 213.234 858.657C212.444 858.481 211.761 858.219 211.183 857.87C210.625 857.521 210.331 857.036 210.3 856.417C210.247 855.339 210.524 854.462 211.132 853.787C211.738 853.092 212.591 852.714 213.689 852.653C214.468 852.609 215.459 853.015 216.662 853.869L216.908 856.41L217.466 856.168L217.297 852.722L216.747 852.543C215.589 852.206 214.451 852.07 213.333 852.132C211.835 852.215 210.616 852.674 209.676 853.507C208.735 854.321 208.296 855.367 208.359 856.646C208.403 857.544 208.709 858.259 209.276 858.788C209.862 859.316 210.552 859.688 211.343 859.904C212.135 860.121 212.925 860.317 213.715 860.493C215.619 860.928 216.6 861.745 216.659 862.943C216.719 864.162 216.415 865.11 215.748 865.788C215.08 866.447 214.227 866.815 213.189 866.892ZM230.642 865.169L230.732 865.164C230.751 865.543 230.896 865.846 231.167 866.071C231.438 866.276 231.693 866.382 231.934 866.389C232.812 866.34 233.807 866.204 234.917 865.982L234.925 865.531L233.094 865.543C232.774 865.561 232.599 865.26 232.569 864.641L232.117 855.472C232.077 854.673 231.893 853.992 231.565 853.429C231.237 852.867 230.857 852.457 230.424 852.201C230.009 851.924 229.519 851.721 228.952 851.592C228.385 851.463 227.921 851.399 227.561 851.399C227.22 851.398 226.861 851.418 226.482 851.459C226.103 851.48 225.507 851.584 224.695 851.769C223.884 851.955 222.716 852.43 221.192 853.196L220.898 853.333L221.077 856.958L221.638 856.777L221.643 854.433C222.467 853.686 223.417 853.052 224.493 852.532C225.237 852.19 225.898 852.003 226.478 851.97C227.077 851.937 227.621 852.007 228.11 852.18C228.497 852.318 228.818 852.531 229.072 852.817C229.326 853.083 229.567 853.511 229.796 854.099C230.025 854.687 230.161 855.401 230.202 856.24L230.332 858.876C227.235 859.41 225.093 859.839 223.908 860.166C221.917 860.798 220.959 861.883 221.035 863.421C221.041 863.54 221.057 863.67 221.084 863.808C221.347 865.897 222.807 866.867 225.462 866.719C227.16 866.625 228.886 866.108 230.642 865.169ZM230.604 864.39C228.998 865.521 227.456 866.128 225.978 866.21C225.179 866.254 224.489 866.062 223.907 865.634C223.325 865.206 222.979 864.474 222.868 863.439L222.853 863.139C222.827 862.62 222.942 862.092 223.196 861.558C223.469 861.002 223.979 860.583 224.726 860.3C225.492 859.997 227.37 859.712 230.36 859.446L230.604 864.39ZM239.144 852.707C240.499 851.77 241.775 851.258 242.973 851.171C243.532 851.14 244.118 851.258 244.732 851.524C245.181 851.699 245.551 852.099 245.842 852.724C246.133 853.329 246.302 854.121 246.35 855.099L246.814 864.508C246.783 864.69 246.698 864.795 246.559 864.823L245.012 865.119L245.002 865.54L251.022 865.175C251.028 864.894 251.03 864.744 251.029 864.724L248.775 864.699L248.262 854.272C248.224 853.513 248.062 852.861 247.775 852.316C249.187 851.316 250.512 850.771 251.749 850.682C252.208 850.657 252.642 850.713 253.049 850.85C253.415 850.97 253.725 851.153 253.977 851.399C254.229 851.646 254.47 852.053 254.698 852.621C254.925 853.169 255.059 853.843 255.098 854.642L255.562 864.05C255.531 864.232 255.455 864.327 255.335 864.333L253.788 864.63C253.773 864.731 253.77 864.871 253.779 865.051L259.768 864.687C259.774 864.407 259.777 864.256 259.776 864.236L257.522 864.212L257.008 853.784C256.971 853.025 256.809 852.383 256.523 851.858C256.255 851.312 255.946 850.919 255.593 850.678C254.846 850.139 253.773 849.908 252.375 849.986C250.842 850.152 249.231 850.782 247.543 851.878C246.811 850.837 245.496 850.37 243.599 850.475C242.225 850.632 240.735 851.276 239.129 852.407L239.111 852.047C239.096 851.748 238.983 851.474 238.77 851.225C238.558 850.977 238.172 850.868 237.613 850.899C237.054 850.93 236.239 851.066 235.17 851.306L235.161 851.727L236.961 851.687C237.041 851.682 237.104 851.749 237.151 851.886L237.799 865.04C237.768 865.222 237.693 865.317 237.573 865.323L236.026 865.62C236.011 865.721 236.007 865.861 236.016 866.041L242.006 865.677C242.012 865.396 242.014 865.246 242.013 865.226L239.759 865.201L239.144 852.707ZM268.123 863.801C264.768 863.988 262.984 861.924 262.771 857.609C262.75 857.17 262.743 856.84 262.753 856.619L273.446 856.023C273.483 855.56 273.492 855.129 273.472 854.73C273.38 852.852 272.809 851.422 271.759 850.438C270.729 849.454 269.276 849.014 267.399 849.119C265.522 849.224 263.91 850.045 262.564 851.582C261.275 853.056 260.696 855.111 260.826 857.748C260.896 859.166 261.165 860.353 261.632 861.309C262.1 862.264 262.704 862.951 263.446 863.371C264.187 863.79 264.902 864.071 265.59 864.213C266.298 864.354 267.081 864.4 267.94 864.352C268.818 864.303 269.772 864.15 270.8 863.892C271.849 863.634 272.595 863.342 273.04 863.016L272.815 862.728C272.544 862.904 271.914 863.119 270.925 863.375C269.935 863.61 269.001 863.752 268.123 863.801ZM270.526 851.018C271.231 851.92 271.621 853.12 271.695 854.618C271.715 855.018 271.72 855.328 271.711 855.549L262.784 856.046C262.901 854.337 263.343 852.951 264.111 851.886C265.066 850.531 266.282 849.812 267.759 849.73C268.898 849.667 269.82 850.096 270.526 851.018ZM276.042 863.39L276.032 863.811L282.052 863.446C282.058 863.165 282.06 863.015 282.059 862.995L279.805 862.97L279.196 850.595C280.648 849.593 281.973 849.048 283.17 848.961C283.649 848.935 284.112 848.989 284.56 849.124C284.946 849.243 285.275 849.425 285.548 849.67C285.82 849.915 286.07 850.312 286.297 850.86C286.544 851.407 286.688 852.08 286.727 852.879L287.183 862.138C287.196 862.398 287.123 862.542 286.964 862.571L285.417 862.867C285.402 862.969 285.399 863.109 285.408 863.289L291.397 862.925C291.403 862.644 291.406 862.494 291.405 862.474L289.151 862.449L288.637 852.022C288.6 851.263 288.428 850.621 288.122 850.098C287.835 849.553 287.515 849.16 287.163 848.919C286.375 848.382 285.253 848.154 283.795 848.235C282.3 848.379 280.762 849.055 279.179 850.265L279.148 849.636L279.118 849.638C278.984 848.944 278.517 848.62 277.719 848.664C277.279 848.689 276.435 848.826 275.186 849.076L275.177 849.497L277.007 849.455C277.087 849.451 277.151 849.527 277.198 849.685L277.838 862.659C277.851 862.919 277.768 863.063 277.589 863.093L276.042 863.39Z" fill="#877360"/>
</svg>
