<svg width="1066" height="1100" viewBox="0 0 1066 1100" fill="none" xmlns="http://www.w3.org/2000/svg">
<path fill-rule="evenodd" clip-rule="evenodd" d="M527.62 0.944946C486.004 0.944948 447.371 5.3352 400.905 19.3529C333.501 39.6868 302.127 56.1378 247.394 98.1384C204.296 131.211 173.481 170.838 142.946 214.138C111.316 258.991 102.204 288.341 86.3427 339.666C69.8905 392.903 66.1509 425.084 60.1483 480.04C47.054 599.92 40.5055 683.106 37.2305 736.332C35.593 762.946 34.7739 782.069 34.3641 794.546C34.1593 800.784 34.0567 805.36 34.0054 808.38C33.9797 809.889 33.9669 811.01 33.9604 811.755C33.9572 812.127 33.9556 812.405 33.9548 812.591L33.9541 812.801L33.954 812.855L33.954 812.869V812.873L33.8777 915.811L37.8777 915.814L37.954 812.876V812.874H35.954C37.954 812.874 37.954 812.874 37.954 812.874V812.871L37.954 812.859L37.9541 812.81L37.9547 812.609C37.9555 812.429 37.9571 812.156 37.9603 811.789C37.9666 811.056 37.9793 809.946 38.0048 808.448C38.0558 805.45 38.1578 800.895 38.362 794.677C38.7704 782.241 39.5877 763.156 41.223 736.578C44.4936 683.422 51.0364 600.299 64.1246 480.474C70.1217 425.569 73.8301 393.703 90.1644 340.847C106.006 289.586 114.97 260.751 146.215 216.443C176.697 173.218 207.23 134.002 249.829 101.312C304.186 59.5991 335.129 43.3738 402.06 23.1824C448.105 9.29205 486.343 4.94495 527.62 4.94495C597.373 4.94494 616.385 8.13015 668.039 16.7836L670.099 17.1287C689.075 20.307 712.607 26.7363 731.445 32.3912C740.853 35.2153 749.07 37.84 754.934 39.7586C757.866 40.7177 760.209 41.5002 761.818 42.0425C762.623 42.3137 763.244 42.5248 763.664 42.6679C763.873 42.7395 764.033 42.7941 764.139 42.8307L764.259 42.872L764.289 42.8823L764.297 42.8848L764.298 42.8854C764.299 42.8855 764.299 42.8855 764.951 40.995C765.604 39.1045 765.604 39.1044 765.603 39.1042L765.601 39.1035L765.593 39.1007L765.561 39.0898L765.438 39.0474L765.319 39.0065L764.956 38.8823C764.532 38.7376 763.906 38.5248 763.096 38.252C761.476 37.7062 759.122 36.92 756.178 35.9568C750.29 34.0306 742.041 31.3956 732.595 28.56C713.724 22.8955 689.995 16.4054 670.76 13.1837L668.806 12.8563C616.922 4.16444 597.704 0.944943 527.62 0.944946ZM24.8767 1031.35V1099.92H28.8767V1031.35H24.8767ZM818.909 70.6986C806.91 68.5006 788.967 55.5955 788.967 55.5955C788.967 55.5955 804.862 70.9783 807.339 81.9876C809.823 93.0269 800.225 105.289 800.225 105.289C800.225 105.289 813.26 94.7886 825.533 98.5874C838.073 102.469 856.116 115.466 856.116 115.466C856.116 115.466 841.347 97.2297 837.618 86.796C833.601 75.558 843.459 63.104 843.459 63.104C843.459 63.104 830.94 72.9027 818.909 70.6986ZM961.519 215.04C945.242 193.16 919.981 168.633 898.868 149.629C888.296 140.114 878.737 131.96 871.821 126.184C868.362 123.296 865.564 121.001 863.629 119.428C862.661 118.642 861.909 118.035 861.399 117.625C861.143 117.42 860.949 117.264 860.817 117.159L860.668 117.04L860.63 117.01L860.62 117.002L860.617 117C860.617 116.999 860.616 116.999 859.372 118.565C858.127 120.13 858.127 120.13 858.128 120.131L858.13 120.132L858.139 120.139L858.175 120.168L858.32 120.284L858.505 120.432L858.666 120.561L858.893 120.743C859.398 121.149 860.144 121.751 861.106 122.532C863.028 124.095 865.813 126.378 869.257 129.254C876.145 135.006 885.665 143.128 896.192 152.602C917.274 171.577 942.284 195.885 958.309 217.428C991.026 261.409 1005.11 289.756 1021.54 341.024C1028.02 361.252 1032.87 387.978 1036.12 409.72C1037.73 420.575 1038.94 430.161 1039.75 437.031C1040.15 440.466 1040.46 443.222 1040.66 445.118C1040.76 446.065 1040.83 446.798 1040.88 447.293C1040.91 447.541 1040.93 447.729 1040.94 447.855L1040.95 447.991L1040.95 447.997L1053.95 746.484L1053.96 746.527L1061.41 1092.56H1003.43H1003.42L1003.42 1092.56L880.896 1093.49H880.866L753.842 1092.56L753.827 1092.56L753.812 1092.56L551.234 1094.19L551.227 1094.19L299.638 1095.35L299.628 1095.35L29.0636 1095.35V1099.35H299.638H299.647L551.252 1098.19H551.259L753.813 1096.56H753.844L880.866 1097.49L880.881 1097.49L880.896 1097.49L1003.43 1096.56H1003.45H1063.46H1065.5L1065.46 1094.52L1057.95 746.397L1057.95 746.375L1057.95 746.353L1044.95 447.764L1044.94 447.711L1044.94 447.658L1042.95 447.851C1044.94 447.658 1044.94 447.658 1044.94 447.657L1044.94 447.655L1044.94 447.645L1044.93 447.607L1044.92 447.461L1044.9 447.3C1044.89 447.188 1044.88 447.052 1044.86 446.891C1044.81 446.39 1044.74 445.65 1044.64 444.696C1044.43 442.787 1044.13 440.016 1043.72 436.565C1042.91 429.663 1041.7 420.036 1040.07 409.13C1036.82 387.348 1031.93 360.356 1025.35 339.804C1008.79 288.138 994.512 259.392 961.519 215.04ZM33.9232 926.079C33.9232 926.079 35.0873 950.122 41.2238 961.38C47.3771 972.669 63.8534 975.354 63.8534 975.354C63.8534 975.354 46.932 976.79 40.2372 988.429C34.0215 999.234 28.6361 1024.73 28.6361 1024.73C28.6361 1024.73 27.4828 1000.54 22.3891 987.585C17.4036 974.907 0 972.335 0 972.335C0 972.335 16.5891 970.834 24.1364 960.572C31.6631 950.338 33.9232 926.079 33.9232 926.079Z" fill="#877360"/>
</svg>
